PathFileType	4	(X/Y/Z)	C:/Users/beibeiliu/ov580/test_trc/User2\sequence.37_training_dense_left.trc
DataRate	CameraRate	NumFrames	NumMarkers	Units	OrigDataRate	OrigDataStartFrame	OrigNumFrames
120	120	7	19	mm	120	89	118
Frame#	Time	ThumbCMC			ThumbMCP			ThumbIP			ThumbTip			IndexMCP			IndexPIP			IndexTip			MiddleMCP			MiddlePIP			MiddleTip			RingMCP			RingPIP			RingTip			PinkyMCP			PinkyPIP			PinkyTip			BackHand1			BackHand2			BackHand3	
		X0	Y0	Z0	X1	Y1	Z1	X2	Y2	Z2	X3	Y3	Z3	X4	Y4	Z4	X5	Y5	Z5	X6	Y6	Z6	X7	Y7	Z7	X8	Y8	Z8	X9	Y9	Z9	X10	Y10	Z10	X11	Y11	Z11	X12	Y12	Z12	X13	Y13	Z13	X14	Y14	Z14	X15	Y15	Z15	X16	Y16	Z16	X17	Y17	Z17	X18	Y18	Z18	
88	0.733333	-206.99	17.2298	-40.5166	-189.215	42.176	-61.2684	-166.36	57.6506	-89.2731	-140.082	51.5257	-101.183	-188.95	-12.3969	-114.152	-176.925	0.0236844	-145.892	-157.628	16.6899	-158.235	-162.33	-24.8361	-119.115	-142.454	-1.52377	-139.699	-130.479	30.0072	-130.782	-141.464	-29.7479	-102.823	-127.472	-11.2703	-125.198	-115.353	21.1308	-124.357	-132.03	-38.1348	-81.2383	-115.225	-36.3541	-105.636	-97.8543	-24.7478	-124.22	-168.437	-42.5055	-48.5662	-177.187	-47.1947	-19.5196	-203.362	-27.6974	-48.1429	
89	0.741667	-205.405	16.6449	-39.8331	-187.878	42.23	-60.3859	-162.807	55.5525	-83.937	-139.892	56.8061	-95.292	-184.747	-10.167	-114.355	-172.003	2.30999	-143.475	-155.966	24.7923	-158.776	-159.005	-23.0183	-117.394	-141.556	1.67351	-138.811	-128.104	34.2173	-125.24	-138.34	-22.7053	-103.413	-120.182	-2.14408	-121.106	-116.722	31.7467	-115.362	-125.189	-32.8595	-75.7963	-108.731	-27.6551	-103.464	-95.8369	-10.8262	-124.039	-161.516	-40.3542	-47.3648	-173.471	-46.2924	-17.8762	-201.235	-28.5248	-47.6421	
90	0.75	-208.17	18.8779	-38.6701	-186.034	43.5521	-58.2915	-160.804	62.1988	-82.8286	-134.67	56.9027	-91.7523	-179.769	-8.98543	-112.531	-167.999	2.34798	-139.982	-148.173	27.9912	-154.572	-156.912	-19.9252	-111.92	-136.408	1.17376	-135.155	-126.598	38.4914	-117.862	-135.802	-18.3468	-99.4688	-116.597	5.48319	-117.055	-112.346	41.8249	-104.239	-119.277	-29.6364	-77.1584	-106.358	-22.915	-99.8647	-92.404	-6.95114	-117.795	-163.266	-35.4515	-48.3552	-170.713	-43.3105	-19.9162	-201.514	-27.7544	-47.4851	
91	0.758333	-208.17	18.1296	-41.1719	-188.516	46.9317	-60.0181	-163.23	63.6401	-80.0321	-136.584	60.7657	-89.1096	-178.376	-6.91921	-118.504	-163.313	3.60344	-140.482	-146.095	27.5337	-153.455	-156.456	-19.4846	-112.728	-132.901	6.72127	-134.774	-125.756	39.0485	-115.005	-130.099	-16.5786	-103.678	-112.774	5.63295	-114.137	-110.632	39.4913	-102.583	-121.614	-26.933	-73.2496	-100.145	-21.6891	-97.9566	-84.6326	-4.86626	-116.841	-161.561	-36.9016	-50.1783	-172.763	-44.206	-22.4355	-196.986	-26.9957	-49.5604	
92	0.766667	-209.062	15.8556	-40.9364	-190.323	41.9321	-58.9949	-165.69	59.7731	-84.418	-139.072	55.9707	-91.5027	-178.122	-9.95216	-114.411	-163.512	2.02595	-142.62	-146.879	23.1954	-152.667	-152.139	-22.3244	-113.082	-132.027	3.35472	-132.733	-130.458	39.7875	-114.033	-129.418	-18.8395	-101.308	-113.629	6.85442	-115.331	-114.701	38.2758	-107.048	-119.577	-29.3324	-74.8837	-101.745	-22.7371	-99.0155	-87.9173	-3.19641	-118.98	-158.297	-38.3073	-48.302	-174.982	-44.1112	-18.6189	-195.45	-29.9716	-44.9869	
93	0.775	-210.387	12.6707	-40.9742	-192.702	39.4126	-64.4709	-171.109	55.0025	-83.7172	-145.159	57.5259	-97.8215	-184.933	-12.5297	-115.339	-169.848	-1.14604	-142.54	-151.429	24.5673	-156.133	-156.124	-22.0086	-118.234	-137.211	1.84247	-135.063	-131.9	35.9931	-113.469	-131.365	-20.165	-104.191	-118.606	2.14938	-117.232	-120.547	38.5473	-108.711	-125.016	-29.7277	-78.4245	-105.899	-23.1685	-102.595	-91.606	-3.4428	-120.987	-164.484	-39.9173	-51.0293	-176.76	-43.542	-21.5755	-199.901	-32.3559	-47.0958	
94	0.783333	-210.594	9.42729	-40.0609	-197.001	41.1218	-64.2415	-171.646	55.2571	-88.9543	-147.42	53.6484	-97.011	-186.069	-12.7475	-119.216	-169.349	-3.33623	-142.447	-154.381	20.625	-154.809	-159.981	-24.1686	-119.142	-140.409	1.5726	-137.543	-132.209	35.7047	-116.266	-136.599	-24.1302	-104.722	-123.548	-2.82524	-121.128	-118.04	34.4495	-112.101	-126.741	-31.155	-79.6308	-105.836	-27.1807	-99.3333	-93.0976	-9.23386	-122.659	-166.131	-38.8953	-49.884	-176.861	-47.1475	-21.147	-199.167	-33.3366	-46.8494	
